<svg id="browser-2" xmlns="http://www.w3.org/2000/svg" width="509.5" height="509.5" viewBox="0 0 509.5 509.5">
  <path id="Path_87" data-name="Path 87" d="M413.969,509.5H95.531A95.525,95.525,0,0,1,0,413.969V95.531A95.525,95.525,0,0,1,95.531,0H413.969A95.525,95.525,0,0,1,509.5,95.531V413.969A95.525,95.525,0,0,1,413.969,509.5Z" fill="#0a607a"/>
  <g id="Group_26" data-name="Group 26" transform="translate(127.375 127.375)">
    <path id="Path_88" data-name="Path 88" d="M244.169,8H26.581A18.591,18.591,0,0,0,8,26.581V53.123A18.588,18.588,0,0,0,26.581,71.688h217.6A18.588,18.588,0,0,0,262.75,53.107V26.581A18.591,18.591,0,0,0,244.169,8Z" transform="translate(-8 -8)" fill="#fff"/>
    <path id="Path_89" data-name="Path 89" d="M164.591,13.333H31.914A18.674,18.674,0,0,0,13.333,31.914V164.591a18.674,18.674,0,0,0,18.581,18.581H164.591a18.674,18.674,0,0,0,18.581-18.581V31.914A18.674,18.674,0,0,0,164.591,13.333ZM98.26,55.8A15.922,15.922,0,1,1,82.338,71.719,15.907,15.907,0,0,1,98.26,55.8ZM130.1,122.143a8.026,8.026,0,0,1-7.961,7.961H74.377a8.026,8.026,0,0,1-7.961-7.961V118.21c0-11.034,9.983-19.95,22.291-19.95h19.106c12.308,0,22.291,8.916,22.291,19.95Z" transform="translate(71.578 71.578)" fill="#fff"/>
    <circle id="Ellipse_5" data-name="Ellipse 5" cx="31.844" cy="31.844" r="31.844" transform="translate(0 185.761)" fill="#fff"/>
  </g>
  <g id="Group_27" data-name="Group 27" transform="translate(127.375 212.286)">
    <path id="Path_90" data-name="Path 90" d="M15.961,31.255H63.727a7.961,7.961,0,1,0,0-15.922H15.961a7.961,7.961,0,1,0,0,15.922Z" transform="translate(-8 16.511)" fill="#8ce1eb"/>
    <path id="Path_91" data-name="Path 91" d="M15.961,29.255H63.727a7.961,7.961,0,1,0,0-15.922H15.961a7.961,7.961,0,1,0,0,15.922Z" transform="translate(-8 -13.333)" fill="#8ce1eb"/>
    <path id="Path_92" data-name="Path 92" d="M15.961,33.255H63.727a7.961,7.961,0,1,0,0-15.922H15.961a7.961,7.961,0,1,0,0,15.922Z" transform="translate(-8 46.355)" fill="#8ce1eb"/>
  </g>
</svg>
