<svg id="certificate_1_" data-name="certificate (1)" xmlns="http://www.w3.org/2000/svg" width="516" height="516" viewBox="0 0 516 516">
  <path id="Path_113" data-name="Path 113" d="M419.25,516H96.75A96.744,96.744,0,0,1,0,419.25V96.75A96.744,96.744,0,0,1,96.75,0h322.5A96.744,96.744,0,0,1,516,96.75v322.5A96.744,96.744,0,0,1,419.25,516Z" fill="#0a607a"/>
  <g id="Group_32" data-name="Group 32" transform="translate(129 129)">
    <path id="Path_114" data-name="Path 114" d="M233.75,8H40.25A32.345,32.345,0,0,0,8,40.25v129A32.345,32.345,0,0,0,40.25,201.5h99.217A51.854,51.854,0,0,1,137,185.375a44.684,44.684,0,0,1,.323-5.37H40.25A10.784,10.784,0,0,1,29.495,169.25v-129A10.784,10.784,0,0,1,40.25,29.495h193.5A10.784,10.784,0,0,1,244.505,40.25V151.512a58.478,58.478,0,0,1,10.755,33.863,44.648,44.648,0,0,1-.758,8.5A32.244,32.244,0,0,0,266,169.25v-129A32.345,32.345,0,0,0,233.75,8Z" transform="translate(-8 -8)" fill="#fff"/>
    <path id="Path_115" data-name="Path 115" d="M139.667,32.177H21.422a10.755,10.755,0,0,1,0-21.511H139.667a10.755,10.755,0,0,1,0,21.511Z" transform="translate(32.338 32.323)" fill="#fff"/>
    <path id="Path_116" data-name="Path 116" d="M182.671,34.844H21.421a10.755,10.755,0,0,1,0-21.511h161.25a10.755,10.755,0,0,1,0,21.511Z" transform="translate(32.323 72.662)" fill="#fff"/>
    <path id="Path_117" data-name="Path 117" d="M85.921,37.495h-64.5a10.747,10.747,0,1,1,0-21.495h64.5a10.747,10.747,0,1,1,0,21.495Z" transform="translate(32.323 113)" fill="#fff"/>
  </g>
  <path id="Path_118" data-name="Path 118" d="M92.588,54.287a37.628,37.628,0,0,0-75.255,0,37.221,37.221,0,0,0,5.45,19.221,3.134,3.134,0,0,0-.032.387l5.37,53.745a8.069,8.069,0,0,0,13.722,4.9l13.11-13.11,13.11,13.11a8.067,8.067,0,0,0,13.722-4.9l5.37-53.745c.016-.129-.048-.258-.032-.387a37.081,37.081,0,0,0,5.466-19.221Z" transform="translate(262.162 252.088)" fill="#8ce1eb"/>
</svg>
