<svg xmlns="http://www.w3.org/2000/svg" xmlns:xlink="http://www.w3.org/1999/xlink" width="512" height="512" viewBox="0 0 512 512">
  <defs>
    <clipPath id="clip-Instagram_Story_1">
      <rect width="512" height="512"/>
    </clipPath>
  </defs>
  <g id="Instagram_Story_1" data-name="Instagram Story – 1" clip-path="url(#clip-Instagram_Story_1)">
    <rect width="512" height="512" fill="#0a607a"/>
    <g id="diploma" transform="translate(80.952 80.509)">
      <path id="Path_1" data-name="Path 1" d="M230.6,246.178a15.079,15.079,0,1,0,21.326,0,15.1,15.1,0,0,0-21.326,0Zm14.065,7.261a4.811,4.811,0,1,1-6.8,0A4.816,4.816,0,0,1,244.664,253.439Z" transform="translate(-71.33 -76.259)" fill="#fff"/>
      <path id="Path_2" data-name="Path 2" d="M91.78,350.531c5.241,0,9.568-1.549,12.723-4.7,1.039-1.038-1.818,2.577,43.971-57.206v.574a5.626,5.626,0,0,0,8.789,4.647l11.869-8.088a1.411,1.411,0,0,1,1.6,0l11.866,8.086a5.626,5.626,0,0,0,8.793-4.645V275.673l5.806,12.21a5.626,5.626,0,0,0,9.935.424l7.245-12.4a1.407,1.407,0,0,1,1.444-.686l14.194,2.208a5.626,5.626,0,0,0,5.94-7.972l-24.758-52.064a18.309,18.309,0,0,1,6.97-5.969l5.579-2.744a8,8,0,0,0,3.947-10.026c13.989-13.049,28.736-25.527,43.9-37.137,78.457-60.091,73.218-55.991,74.262-57.034,6.61-6.609,6.176-18.508-1.182-33.624.507-3.632-.162-8.539-3.146-15.135a5.134,5.134,0,1,0-9.355,4.233c3.181,7.027,2.419,10.085,1.9,10.605a.739.739,0,0,1-.087.074c-6.217,4.535-20.8,1.064-38.02-8.817l2.263-2.262a6.976,6.976,0,0,0,.061-9.746c-7.408-7.63-13.246-15.725-16.439-22.794-3.163-7-2.4-10.053-1.887-10.569a1.285,1.285,0,0,1,.3-.22,5.122,5.122,0,0,0,.7-.233c4.127-.785,17.735,4.134,33.581,19.981,1.677,1.677,3.3,3.407,4.835,5.143a5.134,5.134,0,1,0,7.7-6.8c-1.671-1.894-3.445-3.78-5.271-5.607C308.085,15,290.947,4.433,279.713,5.874c-15.143-7.383-27.063-7.827-33.68-1.209a14.867,14.867,0,0,0-1.519,1.779c-59.735,77.992-58.965,77.133-66.4,86.261a5.134,5.134,0,0,0,7.964,6.483c7.621-9.361,7.513-9.375,56.445-73.262a60.954,60.954,0,0,0,3.037,8.755c8.264,19.37,26.057,39.36,42.454,52.742-63.764,48.837-74.026,56.2-93.122,72.828a32.1,32.1,0,0,0-23.683-11.822,195.38,195.38,0,0,1-12.611-17.78c3.782-4.038,7.531-8.153,11.18-12.272a5.134,5.134,0,1,0-7.686-6.809c-3.343,3.774-6.773,7.545-10.234,11.255a8,8,0,0,0-10.026,3.947l-2.744,5.579a18.392,18.392,0,0,1-10.02,9.111l-3.354,1.271a8,8,0,0,0-4.518,10.638c-13.485,12.484-27.682,24.45-42.25,35.608C1,248.678,5.709,244.988,4.687,246.01c-6.263,6.262-6.182,17.482.226,31.592C20.086,311.015,65.261,350.531,91.78,350.531Zm84.734-73.263a11.622,11.622,0,0,0-13.163,0l-4.608,3.139V251.1a5.134,5.134,0,1,0-10.269,0v20.635c-54.251,70.832-50.934,66.535-51.232,66.833-3.8,3.8-16.6,1.4-33.577-9.957l84.809-110.731v9.26a5.134,5.134,0,1,0,10.269,0V210.766a32.369,32.369,0,0,0,22.378,0v69.641Zm40.884-12.2a11.618,11.618,0,0,0-11.888,5.653l-2.812,4.814L191.39,251.761V204.583c.573-.513,1.1-1.021,1.61-1.544l29.906,62.891Zm-11.011-57.794-6.77-14.236q.427-1.022.781-2.066c4.877,3.66,9.927,7.11,15.1,10.315a30.891,30.891,0,0,0-9.11,5.988ZM337.758,80.656c3.511,9.139,2.838,14.556.83,16.563-2.5,2.5-9.379,2.5-19.782-2.174ZM288.667,54.586,287,56.252a211.618,211.618,0,0,1-23.39-18.286l7.551-9.945C274.321,36.6,280.962,46.206,288.667,54.586Zm-18.809-41.83L256.07,30.916q-.805-.786-1.605-1.58c-3.291-8.223-3.754-14.827-1.171-17.41,2.007-2.006,7.424-2.681,16.564.83Zm4.535,47.2c12.478,9.137,29.31,19.247,44.572,22.077l-10.124,7.687C296.309,82.04,284.051,71.041,274.393,59.955Zm22.1,33.913c8.179,5.77,18.461,11.676,28.077,14.135l-59.224,45.36c-15.719,12.04-31,24.995-45.479,38.549A195.61,195.61,0,0,1,202.085,179.3a32.309,32.309,0,0,0-1.987-9.959c19.74-17.312,29.038-23.888,96.393-75.475ZM185.435,196.085a21.925,21.925,0,1,1,0-31.007A21.95,21.95,0,0,1,185.435,196.085ZM132.71,151.061a28.624,28.624,0,0,0,15.6-14.182l.917-1.863c3.205,5.172,6.655,10.223,10.315,15.1a32.167,32.167,0,0,0-18.176,15.622c-3.408-4.7-6.523-9.44-9.472-14.366ZM11.948,253.272c.3-.3-4.394,3.321,73.245-56.144,14.259-10.921,28.168-22.6,41.42-34.785,3.491,5.429,7.252,10.713,11.233,15.782a32.134,32.134,0,0,0,9.04,24.936L55.358,322.567a162.37,162.37,0,0,1-14.5-12.906c-26.033-26.034-34.508-50.786-28.9-56.389Z" transform="translate(0)" fill="#fff"/>
    </g>
  </g>
</svg>
