<svg id="home" xmlns="http://www.w3.org/2000/svg" width="700" height="700" viewBox="0 0 700 700">
  <path id="Path_76" data-name="Path 76" d="M568.75,700H131.25A131.243,131.243,0,0,1,0,568.75V131.25A131.243,131.243,0,0,1,131.25,0h437.5A131.243,131.243,0,0,1,700,131.25v437.5A131.243,131.243,0,0,1,568.75,700Zm0,0" fill="#00607a"/>
  <path id="Path_77" data-name="Path 77" d="M474.878,285.08,311.857,131.016a11.151,11.151,0,0,0-15.242,0L133.421,285.255a18.071,18.071,0,0,0,12.929,30.974h25.708V453.807a21.885,21.885,0,0,0,22.029,21.721H256.5a10.946,10.946,0,0,0,11.015-10.86V370.552a3.659,3.659,0,0,1,3.679-3.627H337.28a3.658,3.658,0,0,1,3.679,3.627v94.115a10.946,10.946,0,0,0,11.015,10.86h62.41a21.885,21.885,0,0,0,22.029-21.721V316.25H462.12a18.24,18.24,0,0,0,18.351-18.093A18.436,18.436,0,0,0,474.878,285.08Zm0,0" transform="translate(45.764 48.237)" fill="#fff"/>
  <path id="Path_78" data-name="Path 78" d="M224,414.508h86.882V320.392a21.728,21.728,0,0,0-21.721-21.721H245.721A21.728,21.728,0,0,0,224,320.392Zm0,0" transform="translate(82.559 110.245)" fill="#8ce1eb"/>
</svg>
