<svg id="logout" xmlns="http://www.w3.org/2000/svg" width="512" height="512" viewBox="0 0 512 512">
  <path id="Path_108" data-name="Path 108" d="M416,512H96A96,96,0,0,1,0,416V96A96,96,0,0,1,96,0H416a96,96,0,0,1,96,96V416A96,96,0,0,1,416,512Zm0,0" fill="#fc573b"/>
  <path id="Path_109" data-name="Path 109" d="M288,202.672A10.671,10.671,0,0,1,277.328,192V160a10.681,10.681,0,0,0-10.672-10.672H152A10.664,10.664,0,1,1,152,128H266.672a32.032,32.032,0,0,1,32,32v32A10.671,10.671,0,0,1,288,202.672Zm0,0" fill="#ffe6e2"/>
  <path id="Path_110" data-name="Path 110" d="M266.672,352H229.344a10.672,10.672,0,0,1,0-21.344h37.328a10.681,10.681,0,0,0,10.672-10.672V277.313a10.672,10.672,0,0,1,21.344,0V320A32.055,32.055,0,0,1,266.672,352Zm0,0" fill="#ffe6e2"/>
  <g id="Group_31" data-name="Group 31">
    <path id="Path_111" data-name="Path 111" d="M220.129,150.367l-64.176-21.375a21.864,21.864,0,0,0-6.625-.992A21.351,21.351,0,0,0,128,149.328v192a21.551,21.551,0,0,0,14.527,20.289l64.242,21.406a22.027,22.027,0,0,0,6.559.977,21.351,21.351,0,0,0,21.328-21.328v-192A21.5,21.5,0,0,0,220.129,150.367Zm0,0" fill="#fff"/>
    <path id="Path_112" data-name="Path 112" d="M326.574,287.184A10.658,10.658,0,0,1,320,277.328v-32H277.328a10.664,10.664,0,1,1,0-21.328H320V192a10.658,10.658,0,0,1,18.207-7.535l42.672,42.672a10.678,10.678,0,0,1,0,15.086l-42.672,42.672A10.716,10.716,0,0,1,326.574,287.184Zm0,0" fill="#fff"/>
  </g>
</svg>
