<svg id="meeting" xmlns="http://www.w3.org/2000/svg" width="700" height="700" viewBox="0 0 700 700">
  <path id="Path_71" data-name="Path 71" d="M568.75,700H131.25A131.242,131.242,0,0,1,0,568.75V131.25A131.242,131.242,0,0,1,131.25,0h437.5A131.242,131.242,0,0,1,700,131.25v437.5A131.242,131.242,0,0,1,568.75,700Z" fill="#00607a"/>
  <circle id="Ellipse_2" data-name="Ellipse 2" cx="20.478" cy="20.478" r="20.478" transform="translate(197.713 424.71)" fill="#8ce1eb"/>
  <path id="Path_72" data-name="Path 72" d="M79.672,62.955H18.239A10.243,10.243,0,0,1,8,52.716,30.754,30.754,0,0,1,38.716,22H59.194A30.754,30.754,0,0,1,89.911,52.716,10.243,10.243,0,0,1,79.672,62.955Z" transform="translate(168.597 461.299)" fill="#8ce1eb"/>
  <circle id="Ellipse_3" data-name="Ellipse 3" cx="20.478" cy="20.478" r="20.478" transform="translate(329.522 424.71)" fill="#8ce1eb"/>
  <path id="Path_73" data-name="Path 73" d="M85.672,62.955H24.239A10.243,10.243,0,0,1,14,52.716,30.754,30.754,0,0,1,44.716,22H65.194A30.754,30.754,0,0,1,95.911,52.716,10.243,10.243,0,0,1,85.672,62.955Z" transform="translate(295.045 461.299)" fill="#8ce1eb"/>
  <circle id="Ellipse_4" data-name="Ellipse 4" cx="20.478" cy="20.478" r="20.478" transform="translate(461.331 424.71)" fill="#8ce1eb"/>
  <path id="Path_74" data-name="Path 74" d="M91.672,62.955H30.239A10.243,10.243,0,0,1,20,52.716,30.754,30.754,0,0,1,50.716,22H71.194a30.754,30.754,0,0,1,30.716,30.716A10.243,10.243,0,0,1,91.672,62.955Z" transform="translate(421.492 461.299)" fill="#8ce1eb"/>
  <path id="Path_75" data-name="Path 75" d="M298.107,8H45.536A37.571,37.571,0,0,0,8,45.536V175.22a37.575,37.575,0,0,0,37.536,37.556H298.086a37.575,37.575,0,0,0,37.556-37.535V45.536A37.571,37.571,0,0,0,298.107,8ZM103.569,130.866H48.955a13.648,13.648,0,1,1,0-27.3h54.614a13.648,13.648,0,1,1,0,27.3Zm27.3-54.614H48.955a13.648,13.648,0,1,1,0-27.3h81.911a13.648,13.648,0,1,1,0,27.3Zm40.955,34.136a68.289,68.289,0,0,1,54.614-66.9v61.29l-43.269,43.269A68.272,68.272,0,0,1,171.821,110.388Zm68.252,68.252a69.464,69.464,0,0,1-37.679-11.2l47.365-47.365a13.979,13.979,0,0,0,3.973-9.686v-66.9A68.266,68.266,0,0,1,240.073,178.64Z" transform="translate(178.179 172.081)" fill="#fff"/>
</svg>
