<svg id="pencil" xmlns="http://www.w3.org/2000/svg" width="512" height="512" viewBox="0 0 512 512">
  <path id="Path_93" data-name="Path 93" d="M416,512H96A96,96,0,0,1,0,416V96A96,96,0,0,1,96,0H416a96,96,0,0,1,96,96V416A96,96,0,0,1,416,512Zm0,0" fill="#0a607a"/>
  <path id="Path_94" data-name="Path 94" d="M376,363.105H237.328a10.672,10.672,0,0,1,0-21.344H376a10.672,10.672,0,0,1,0,21.344Zm0,0" fill="#8ce1eb"/>
  <path id="Path_95" data-name="Path 95" d="M346.848,172.672l-15.086-15.086c-8.066-8.066-22.113-8.066-30.16,0l-22.066,22.063,45.25,45.246,22.063-22.062a21.3,21.3,0,0,0,0-30.16Zm0,0" fill="#8ce1eb"/>
  <path id="Path_96" data-name="Path 96" d="M264.465,194.734,154.527,304.672a5.31,5.31,0,0,0-1.422,2.543l-11.633,49.344a5.327,5.327,0,0,0,6.414,6.418l49.344-11.633a5.234,5.234,0,0,0,2.547-1.422L309.711,239.984Zm0,0" fill="#fff"/>
</svg>
